<svg width="95" height="45" viewBox="0 0 95 45" fill="none" xmlns="http://www.w3.org/2000/svg">
<path fill-rule="evenodd" clip-rule="evenodd" d="M83.7303 22.9348C83.7303 17.7573 81.2225 13.6719 76.4292 13.6719C71.6157 13.6719 68.7034 17.7573 68.7034 22.8943C68.7034 28.982 72.1416 32.0561 77.0764 32.0561C79.4832 32.0561 81.3034 31.5101 82.6787 30.7415V26.6966C81.3034 27.3842 79.7258 27.809 77.7236 27.809C75.7618 27.809 74.0225 27.1213 73.8 24.7348H83.6899C83.6899 24.4719 83.7303 23.4202 83.7303 22.9348ZM73.7393 21.0134C73.7393 18.7281 75.1348 17.7775 76.409 17.7775C77.6427 17.7775 78.9573 18.7281 78.9573 21.0134H73.7393Z" fill="#8584A4"/>
<path fill-rule="evenodd" clip-rule="evenodd" d="M60.8966 13.6719C58.9146 13.6719 57.6405 14.6022 56.9326 15.2494L56.6697 13.9955H52.2202V37.5775L57.2764 36.5056L57.2966 30.782C58.0247 31.3078 59.0966 32.0561 60.8764 32.0561C64.4966 32.0561 67.7933 29.1438 67.7933 22.7325C67.773 16.8674 64.436 13.6719 60.8966 13.6719ZM59.6832 27.6067C58.4899 27.6067 57.782 27.182 57.2966 26.6561L57.2764 19.1528C57.8023 18.5663 58.5303 18.1618 59.6832 18.1618C61.5236 18.1618 62.7978 20.2247 62.7978 22.8741C62.7978 25.5842 61.5438 27.6067 59.6832 27.6067Z" fill="#8584A4"/>
<path fill-rule="evenodd" clip-rule="evenodd" d="M45.2629 12.4786L50.3393 11.3865V7.28088L45.2629 8.35279V12.4786Z" fill="#8584A4"/>
<path d="M50.3393 14.0157H45.2629V31.7124H50.3393V14.0157Z" fill="#8584A4"/>
<path fill-rule="evenodd" clip-rule="evenodd" d="M39.8225 15.5123L39.4989 14.0157H35.1303V31.7123H40.1865V19.7191C41.3798 18.1618 43.4023 18.4449 44.0292 18.6674V14.0157C43.382 13.773 41.0157 13.3281 39.8225 15.5123Z" fill="#8584A4"/>
<path fill-rule="evenodd" clip-rule="evenodd" d="M29.7101 9.62695L24.7753 10.6786L24.7551 26.8786C24.7551 29.8719 27 32.0764 29.9933 32.0764C31.6517 32.0764 32.8652 31.773 33.5326 31.409V27.3034C32.8854 27.5663 29.6899 28.4966 29.6899 25.5034V18.3236H33.5326V14.0157H29.6899L29.7101 9.62695Z" fill="#8584A4"/>
<path fill-rule="evenodd" clip-rule="evenodd" d="M16.0382 19.1528C16.0382 18.364 16.6854 18.0606 17.7573 18.0606C19.2944 18.0606 21.236 18.5258 22.773 19.355V14.6022C21.0944 13.9348 19.436 13.6719 17.7573 13.6719C13.6517 13.6719 10.9213 15.8157 10.9213 19.3955C10.9213 24.9775 18.6067 24.0876 18.6067 26.4943C18.6067 27.4247 17.7978 27.7281 16.6652 27.7281C14.9865 27.7281 12.8427 27.0404 11.1438 26.1101V30.9236C13.0247 31.7325 14.9258 32.0764 16.6652 32.0764C20.8719 32.0764 23.764 29.9932 23.764 26.373C23.7438 20.346 16.0382 21.4179 16.0382 19.1528Z" fill="#8584A4"/>
</svg>
