<svg width="62" height="67" viewBox="0 0 62 67" fill="none" xmlns="http://www.w3.org/2000/svg">
<path d="M58.6973 49.3695C47.4306 53.0568 35.7779 55.1396 24.4376 58.6289" stroke="#707070" stroke-width="3" stroke-linecap="round"/>
<path d="M20.008 10.2553C21.8303 12.0206 21.0039 9.98429 19.7972 9.98429C18.9408 9.98429 20.4076 11.3113 21.3632 11.0383C22.7532 10.6411 21.451 9.71326 20.6856 9.71326C18.8699 9.71326 20.1042 11.3271 21.0319 11.6707C22.1071 12.0689 22.2363 10.4692 21.6342 9.83371C21.17 9.34373 19.4961 9.12223 19.4961 10.1349C19.4961 13.449 23.3049 9.71326 20.8211 9.71326" stroke="#707070" stroke-width="3" stroke-linecap="round"/>
<path d="M47.5119 12.8349C49.3342 14.6002 48.5078 12.5639 47.3011 12.5639C46.4447 12.5639 47.9115 13.8909 48.8671 13.6179C50.2571 13.2207 48.9549 12.2928 48.1895 12.2928C46.3739 12.2928 47.6081 13.9067 48.5358 14.2503C49.611 14.6485 49.7402 13.0488 49.1381 12.4133C48.6739 11.9233 47 11.7018 47 12.7144C47 16.0285 50.8088 12.2928 48.325 12.2928" stroke="#707070" stroke-width="3" stroke-linecap="round"/>
<path d="M17.5562 3.28928C15.5867 3.28928 12.7283 3.08243 11.1915 4.61922C9.65713 6.15362 8.71789 9.35751 9.26786 11.4352C10.7463 17.0204 19.5247 21.6343 24.7284 17.9661C28.9179 15.0129 28.282 8.64223 24.5859 5.47419C21.2094 2.58004 12.809 1.65428 10.2891 5.85417" stroke="#707070" stroke-width="2" stroke-linecap="round"/>
<path d="M14.5874 19.1992L14.3164 22.9936" stroke="#707070" stroke-width="2" stroke-linecap="round"/>
<path d="M14.3174 29.2271C14.3174 30.4909 14.0677 31.3101 13.7754 32.4794" stroke="#707070" stroke-width="2" stroke-linecap="round"/>
<path d="M13.5035 38.9839C13.402 39.7066 13.3129 40.4276 13.2324 41.1521" stroke="#707070" stroke-width="2" stroke-linecap="round"/>
<path d="M59.0797 44.332C59.0797 46.1961 58.6932 54.9267 60.4282 55.7942" stroke="#707070" stroke-width="3" stroke-linecap="round"/>
<path d="M19.2988 53.7715C22.6396 57.7486 24.1568 60.3928 25.367 65.2337" stroke="#707070" stroke-width="3" stroke-linecap="round"/>
<path d="M8.82381 11.2659C6.00939 8.93519 1.55664 4.99784 1.55664 1.00635" stroke="#707070" stroke-width="2" stroke-linecap="round"/>
<path d="M11.9727 42.2627C12.8188 42.8912 13.6501 43.6307 14.6829 43.8889" stroke="#707070" stroke-width="2" stroke-linecap="round"/>
</svg>
