<svg width="343" height="332" viewBox="0 0 343 332" fill="none" xmlns="http://www.w3.org/2000/svg">
<path d="M74 43C64.5002 117.392 57 191.963 57 267" stroke="#2E2E2E" stroke-width="10" stroke-linecap="round"/>
<path d="M71 48C114.17 56.1882 157.476 54.9497 201.205 54.9497C213.881 54.9497 232.385 58.8424 244.481 53.9844C249.811 51.844 257.576 49.7374 263.176 49.7374C266.97 49.7374 271.522 48.9823 275.233 49.8339C278.671 50.6229 277.925 65.9841 277.944 68.2699C278.303 112.437 276.846 155.995 273.831 200.024C272.568 218.478 271.405 237.215 271.214 255.718C271.182 258.814 273.037 269.927 270.373 272.127C267.245 274.712 262.748 273.918 258.969 273.768C239.31 272.987 219.912 270.39 200.176 270.39C157.697 270.39 115.197 272.127 72.6825 272.127" stroke="#2E2E2E" stroke-width="10" stroke-linecap="round"/>
<path d="M134 168.473C137.257 168.739 138 170.102 138 167" stroke="#2E2E2E" stroke-width="20" stroke-linecap="round"/>
<path d="M277 54C284.277 67.9306 290.699 82.2972 299.08 95.5484C302.539 101.018 307.608 105.652 310.707 111.225C312.827 115.039 314.429 116.919 318.173 119.118C322.507 121.663 321.101 135.147 321.267 139.07C322.148 159.906 325 180.093 325 201.119C325 217.197 325 233.276 325 249.354C325 258.148 324.962 266.767 321.587 275.007C318.813 281.777 321.979 291.483 320.2 298.796C319.293 302.525 320.901 326.735 316.147 325.983C297.036 322.961 288.287 291.42 278.92 276.98" stroke="#2E2E2E" stroke-width="10" stroke-linecap="round"/>
<path d="M170 94C198.89 95.4723 228.171 99.7143 257.1 99.7143C263.746 99.7143 267.901 100.659 274 102" stroke="#2E2E2E" stroke-width="10" stroke-linecap="round"/>
<path d="M214 104.8C218.179 99.8538 219.301 94.6664 224.966 90.8665C229.124 88.0783 235.203 92.5087 236.461 97.1999C238.745 105.714 233.026 112.188 233.026 120" stroke="#2E2E2E" stroke-width="10" stroke-linecap="round"/>
<path d="M227 125C224.908 126.882 223.716 128.422 223 131" stroke="#2E2E2E" stroke-width="10" stroke-linecap="round"/>
<path d="M231 125C234.096 128.225 234.69 131.391 237 135" stroke="#2E2E2E" stroke-width="10" stroke-linecap="round"/>
<path d="M207 140C222.311 140 268.229 141 252.918 141" stroke="#2E2E2E" stroke-width="10" stroke-linecap="round"/>
<path d="M205.072 142.499C205.072 153.84 203.574 164.402 202.706 175.541C201.84 186.664 202.133 197.66 200.476 208.722C199.596 214.591 200.205 220.893 200.205 226.839C200.205 234.183 205.948 233.712 212.101 233.712C215.603 233.712 223.293 235.334 226.294 233.573C228.306 232.392 228.124 207.692 228.186 204.279C228.32 197.02 228.186 189.744 228.186 182.483C228.186 176.397 231.836 173.285 231.836 181.233C231.836 191.38 229.756 204.42 231.904 214.345C233.649 222.41 230.251 234.992 240.285 236.28C242.232 236.53 253.505 239.587 254.681 236.905C257.388 230.725 254.405 220.603 255.627 213.789C256.894 206.725 257.9 199.634 258.533 192.478C259.426 182.39 259.083 171.406 257.114 161.519C255.772 154.784 253.734 146.846 253.734 140" stroke="#2E2E2E" stroke-width="10" stroke-linecap="round"/>
<path d="M223 131C220.678 131.279 217 141.139 217 144" stroke="#2E2E2E" stroke-width="10" stroke-linecap="round"/>
<path d="M233 136C235.89 136 236.159 137.477 237 140" stroke="#2E2E2E" stroke-width="10" stroke-linecap="round"/>
<path d="M182 89.484C187.03 84.1924 195 87.9057 195 95.4362C195 97.8389 194.232 101.528 192.292 103.161C190.323 104.818 193.181 108.677 190.667 110" stroke="#2E2E2E" stroke-width="10" stroke-linecap="round"/>
<path d="M176 114.591C180.577 114.591 192.523 111.896 194.237 118.016C195.565 122.761 197.009 131.206 201 134" stroke="#FF9737" stroke-width="10" stroke-linecap="round"/>
<path d="M198 161.26C195.615 161.26 187.13 155.178 187.13 159.629C187.13 166.114 186.043 172.369 186.043 178.759C186.043 180.5 185.358 191.56 183.87 191.742C179.96 192.22 176.985 194 173 194" stroke="#FF9737" stroke-width="10" stroke-linecap="round"/>
<path d="M175 249C181.164 249 189 264.43 189 271" stroke="#2E2E2E" stroke-width="10" stroke-linecap="round"/>
<path d="M187 258.828C193.212 258.136 198.904 250.572 202.599 258.828C203.689 261.263 204.03 268.957 206 270" stroke="#2E2E2E" stroke-width="10" stroke-linecap="round"/>
<path d="M328 217H333" stroke="#2E2E2E" stroke-width="20" stroke-linecap="round"/>
<path d="M264 40C262.58 30.3073 257.426 20.9923 254 12" stroke="#2E2E2E" stroke-width="10" stroke-linecap="round"/>
<path d="M244 10C234.546 4.44733 219.118 5.15038 208.54 5.06754C189.133 4.91557 169.718 5.06754 150.311 5.06754C130.59 5.06754 110.869 5.06754 91.1484 5.06754C70.447 5.06754 49.4436 6.7117 29 6.7117" stroke="#2E2E2E" stroke-width="10" stroke-linecap="round"/>
<path d="M30 17C38.5531 22.9689 45.6549 30.8878 53.7876 37.4365C56.1148 39.3105 57.8457 39.5833 59 42" stroke="#2E2E2E" stroke-width="10" stroke-linecap="round"/>
<path d="M42 266C28.9012 255.577 15.5758 244.205 5 231" stroke="#2E2E2E" stroke-width="10" stroke-linecap="round"/>
<path d="M20 14C17.3562 49.8552 10 86.8735 10 122.765C10 136.037 10.1246 149 8.7037 162.176C6.66326 181.097 5 238.207 5 219.167" stroke="#2E2E2E" stroke-width="10" stroke-linecap="round"/>
<path d="M170 62C170 118.057 166.4 173.692 166.4 229.717C166.4 239.148 166.4 248.578 166.4 258.008C166.4 265.121 165.829 274.305 161 261.871" stroke="#2E2E2E" stroke-width="15" stroke-linecap="round"/>
</svg>
