<svg width="1679" height="756" viewBox="0 0 1679 756" fill="none" xmlns="http://www.w3.org/2000/svg">
<path d="M212.163 550.645C206.185 569.651 199.106 589.003 191.034 607.023C190.443 608.342 189.49 609.725 189.044 611.116C188.414 613.082 193.869 612.893 194.193 612.919C213.824 614.508 233.681 613.778 253.33 615.39C265.768 616.41 278.353 617.563 290.636 619.729C293.637 620.258 297.888 623.555 297.128 617.912C293.789 593.097 283.718 569.153 272.333 548.855" stroke="#0133FF" stroke-width="7" stroke-linecap="round"/>
<path d="M199.608 562.386C194.502 563.042 189.416 563.523 184.307 563.883C182.332 564.023 175.885 565.922 174.916 562.915C174.053 560.24 174.683 556.046 174.703 553.18C174.723 550.282 174.553 547.573 174.349 544.727C174.245 543.276 175.768 543.469 176.581 543.332C181.905 542.433 186.707 540.263 191.484 537.019C197.034 533.249 201.737 527.51 207.374 524.139" stroke="#0133FF" stroke-width="7" stroke-linecap="round"/>
<path d="M264.929 543.73C276.133 549.535 287.425 555.019 299.403 558.554C302.64 559.509 304.158 559.825 307.21 560.447C308.32 560.673 310.088 562.216 310.573 560.937C310.661 560.703 306.819 554.567 306.603 554.108C304.607 549.866 302.996 545.585 303.759 540.419C304.115 538.013 304.755 536.192 306.149 534.402C307.342 532.87 299.554 529.177 299.551 529.176C281.619 518.899 262.473 512.232 242.911 507" stroke="#0133FF" stroke-width="7" stroke-linecap="round"/>
<path d="M207.554 518.675C210.613 520.385 213.271 523.255 216.531 524.442C217.597 524.83 219.202 524.645 220.089 525.515C222.066 527.455 226.341 523.544 227.946 522.202C231.565 519.174 235.211 514.982 239.667 515.077" stroke="#0133FF" stroke-width="7" stroke-linecap="round"/>
<path d="M1122.16 63.645C1116.19 82.6513 1109.11 102.003 1101.03 120.023C1100.44 121.342 1099.49 122.725 1099.04 124.116C1098.41 126.082 1103.87 125.893 1104.19 125.919C1123.82 127.508 1143.68 126.778 1163.33 128.39C1175.77 129.41 1188.35 130.563 1200.64 132.729C1203.64 133.258 1207.89 136.555 1207.13 130.912C1203.79 106.097 1193.72 82.1534 1182.33 61.855" stroke="#0133FF" stroke-width="7" stroke-linecap="round"/>
<path d="M1109.61 75.3859C1104.5 76.0421 1099.42 76.5226 1094.31 76.8832C1092.33 77.0226 1085.89 78.9216 1084.92 75.9151C1084.05 73.2396 1084.68 69.0458 1084.7 66.18C1084.72 63.2824 1084.55 60.5726 1084.35 57.7267C1084.25 56.2761 1085.77 56.4695 1086.58 56.3321C1091.9 55.433 1096.71 53.2625 1101.48 50.0187C1107.03 46.2493 1111.74 40.5104 1117.37 37.1393" stroke="#0133FF" stroke-width="7" stroke-linecap="round"/>
<path d="M1174.93 56.7297C1186.13 62.5353 1197.42 68.0194 1209.4 71.5539C1212.64 72.5092 1214.16 72.8251 1217.21 73.447C1218.32 73.6731 1220.09 75.216 1220.57 73.9366C1220.66 73.7032 1216.82 67.5667 1216.6 67.108C1214.61 62.8658 1213 58.5854 1213.76 53.4193C1214.11 51.0133 1214.76 49.1917 1216.15 47.4021C1217.34 45.8701 1209.55 42.1773 1209.55 42.1758C1191.62 31.8991 1172.47 25.2315 1152.91 20" stroke="#0133FF" stroke-width="7" stroke-linecap="round"/>
<path d="M1117.55 31.675C1120.61 33.385 1123.27 36.2546 1126.53 37.4418C1127.6 37.8301 1129.2 37.6451 1130.09 38.5151C1132.07 40.4552 1136.34 36.5442 1137.95 35.2019C1141.57 32.1743 1145.21 27.9825 1149.67 28.0774" stroke="#0133FF" stroke-width="7" stroke-linecap="round"/>
<path d="M600.32 117.671C600.32 107.328 602.696 95.8551 608.397 87.078C616.061 75.2801 633.007 72.4956 646.09 74.0759C662.692 76.0815 663.32 96.1364 663.32 109.411" stroke="#0133FF" stroke-width="7" stroke-linecap="round"/>
<path d="M601.32 120.504C623.799 120.504 647.772 122.218 669.32 114.671" stroke="#0133FF" stroke-width="7" stroke-linecap="round"/>
<path d="M631.32 74.671C631.554 72.6453 632.32 70.7115 632.32 68.671" stroke="#0133FF" stroke-width="7" stroke-linecap="round"/>
<path d="M647.32 73.0886C634.65 73.0886 622.112 71.3368 609.446 71.728C603.999 71.8962 597.526 72.9558 594.188 77.7535C590.806 82.6141 588.355 90.2825 587.527 96.1801C586.538 103.23 585.626 111.931 582.144 118.222C581.311 119.727 580.385 121.056 583.345 120.36C591.666 118.402 599.907 119.737 608.284 120.671" stroke="#0133FF" stroke-width="7" stroke-linecap="round"/>
<path d="M602.32 121.27C619.468 131.22 639.406 135.786 659.271 135.669C666.246 135.628 683.195 135.926 685.878 127.289C689.194 116.611 673 112.815 666.132 111.671" stroke="#0133FF" stroke-width="7" stroke-linecap="round"/>
<path d="M625.32 97.7282C626.671 97.7282 632.504 95.3495 632.787 97.7282C633.014 99.6358 637.801 100.671 639.32 100.671" stroke="#0133FF" stroke-width="7" stroke-linecap="round"/>
<path d="M641.781 596.486C644.582 617.571 650.126 638.026 655.118 658.667C655.776 661.385 655.516 662.867 658.45 662.643C663.703 662.242 668.941 660.93 674.042 659.674C676.974 658.951 680.081 658.283 682.897 657.151C684.436 656.532 683.266 652.442 683.202 651.406C682.301 636.916 678.349 623.058 676.877 608.667C676.747 607.399 676.105 603.839 676.89 604.843C679.484 608.16 681.713 612.102 684.064 615.601C689.666 623.941 693.685 632.992 698.607 641.693C699.267 642.859 704.162 652.134 705.374 651.421C707.895 649.939 709.919 647.447 712.071 645.514C715.181 642.721 718.512 640.105 722.015 637.82C724.566 636.156 727.2 634.723 730.059 633.683C732.11 632.937 725.411 624.914 724.774 623.988C716.777 612.373 709.428 600.183 703.444 587.411C701.471 583.201 699.448 579.012 697.213 574.942C696.556 573.746 695.903 571.908 695.019 570.934C693.731 569.515 681.986 575.55 680.482 576.098C665.969 581.38 652.66 589.089 638.137 594.374" stroke="#0133FF" stroke-width="7" stroke-linecap="round"/>
<path d="M1392.78 331.486C1395.58 352.571 1401.13 373.026 1406.12 393.667C1406.78 396.385 1406.52 397.867 1409.45 397.643C1414.7 397.242 1419.94 395.93 1425.04 394.674C1427.97 393.951 1431.08 393.283 1433.9 392.151C1435.44 391.532 1434.27 387.442 1434.2 386.406C1433.3 371.916 1429.35 358.058 1427.88 343.667C1427.75 342.399 1427.1 338.839 1427.89 339.843C1430.48 343.16 1432.71 347.102 1435.06 350.601C1440.67 358.941 1444.69 367.992 1449.61 376.693C1450.27 377.859 1455.16 387.134 1456.37 386.421C1458.89 384.939 1460.92 382.447 1463.07 380.514C1466.18 377.721 1469.51 375.105 1473.02 372.82C1475.57 371.156 1478.2 369.723 1481.06 368.683C1483.11 367.937 1476.41 359.914 1475.77 358.988C1467.78 347.373 1460.43 335.183 1454.44 322.411C1452.47 318.201 1450.45 314.012 1448.21 309.942C1447.56 308.746 1446.9 306.908 1446.02 305.934C1444.73 304.515 1432.99 310.55 1431.48 311.098C1416.97 316.38 1403.66 324.089 1389.14 329.374" stroke="#0133FF" stroke-width="7" stroke-linecap="round"/>
<path d="M148.155 201.611C133.315 221.928 113.3 238.901 95.0915 250.888C86.5459 256.513 77.8454 261.297 68.9875 265.586C63.946 268.027 79.5847 266.69 84.8638 266.104C124.299 261.729 163.228 250.038 202.332 241.758C207.929 240.572 213.538 239.488 219.149 238.455C220.372 238.23 223.897 238.29 222.787 237.484C216.564 232.964 208.874 231.128 202.332 227.901C192.069 222.838 182.047 216.737 171.777 211.713C162.523 207.186 152.917 204.499 143.705 199.798C135.837 195.784 124.361 183.38 136.687 173.185C143.581 167.482 152.442 165.93 160.137 167.682C164.438 168.66 172.438 171.806 174.174 179.207C175.331 184.145 163.816 182.77 162.02 184.128" stroke="#0133FF" stroke-width="7" stroke-linecap="round"/>
<path d="M1137.27 688.837C1162.63 691.384 1194.39 701.422 1219 694.747" stroke="#0133FF" stroke-width="7" stroke-linecap="round"/>
<path d="M1181.43 693.29C1178 659.712 1173.02 625.874 1171.57 592.212C1171.25 584.989 1174.6 578.747 1174.6 571.803C1174.6 564.913 1172.89 558.459 1172.89 551.556" stroke="#0133FF" stroke-width="7" stroke-linecap="round"/>
<path d="M1169.57 550.071C1169.06 546.526 1153.44 535.503 1148.4 535.988C1143.71 536.438 1145.04 543.074 1141.89 544.438" stroke="#0133FF" stroke-width="7" stroke-linecap="round"/>
<path d="M1141.89 544.135C1139.37 540.602 1134.6 539.196 1132 535.972" stroke="#0133FF" stroke-width="7" stroke-linecap="round"/>
<path d="M1171.55 551.555C1175.23 549.53 1200.48 528.971 1204.5 535.914" stroke="#0133FF" stroke-width="7" stroke-linecap="round"/>
<path d="M1205.82 531.52V538.941" stroke="#0133FF" stroke-width="7" stroke-linecap="round"/>
<path d="M1171.55 545.619C1168.02 534.356 1157.15 520.614 1143.86 516.679" stroke="#0133FF" stroke-width="7" stroke-linecap="round"/>
<path d="M1140.57 521.131C1140.57 516.966 1140.66 513.87 1141.89 510" stroke="#0133FF" stroke-width="7" stroke-linecap="round"/>
<path d="M1174.84 547.103C1176.67 530.811 1195.17 516.061 1212.41 512.226" stroke="#0133FF" stroke-width="7" stroke-linecap="round"/>
<path d="M1209.11 510L1219 518.163" stroke="#0133FF" stroke-width="7" stroke-linecap="round"/>
<path d="M1162.98 581.98C1169.83 581.98 1176.05 581.703 1182.75 580.496" stroke="#0133FF" stroke-width="7" stroke-linecap="round"/>
<path d="M1161.66 624.278H1179.45" stroke="#0133FF" stroke-width="7" stroke-linecap="round"/>
<path d="M1166.27 665.833C1169.61 665.602 1172.87 664.888 1176.16 664.349" stroke="#0133FF" stroke-width="7" stroke-linecap="round"/>
</svg>
