<svg width="1552" height="869" viewBox="0 0 1552 869" fill="none" xmlns="http://www.w3.org/2000/svg">
<rect width="1552" height="869" fill="#FAFAFA"/>
<path d="M557.292 564.526C546.206 557.597 564.679 506.767 565.088 507.027C569.375 509.755 571.715 518.403 578.366 514.215C591.091 506.203 594.78 483.595 598.954 470.238" stroke="#FF9737" stroke-width="10" stroke-linecap="round"/>
<path d="M153.596 465.852C156.97 477.101 157.743 489.234 162.732 499.962C169.025 513.491 178.452 516.127 190.385 522.864C197.264 526.747 201.097 531.251 205.613 537.36C213.697 548.298 228.969 549.607 241.306 551.37" stroke="#FF9737" stroke-width="10" stroke-linecap="round"/>
<path d="M1059.31 560.671C1059.73 566.701 1066.8 579.009 1059.43 581.624C1037.63 589.362 1001.34 596.742 995.233 623.53C986.298 662.746 1045.29 672.25 1070.52 676.4C1089.54 679.53 1110.28 680.95 1127.53 690.531C1139.36 697.102 1138.76 703.187 1142.63 714.164" stroke="#FF9737" stroke-width="10" stroke-linecap="round"/>
<path d="M1072.59 211.493C1063.08 186.133 1069.24 132.33 1097.81 118.666C1122.88 106.676 1090.41 71.5728 1081.36 58" stroke="#FF9737" stroke-width="10" stroke-linecap="round"/>
<path d="M134.639 181.671C129.891 200.233 110.671 241.877 129.279 258.417C140.138 268.07 156.566 272.547 166.069 283.512C177.369 296.552 166.406 315.861 160.952 328.586" stroke="#FF9737" stroke-width="10" stroke-linecap="round"/>
<path d="M722.064 652.671C716.875 658.776 708.443 661.876 703.507 668.109C694.01 680.102 718.202 705.794 723.468 714.424" stroke="#FF9737" stroke-width="10" stroke-linecap="round"/>
<path d="M320.483 669.316C314.505 688.322 307.426 707.674 299.354 725.694C298.763 727.013 297.81 728.396 297.364 729.787C296.734 731.753 302.189 731.564 302.513 731.59C322.144 733.179 342.001 732.449 361.65 734.061C374.088 735.081 386.673 736.234 398.956 738.4C401.957 738.929 406.208 742.226 405.448 736.583C402.109 711.768 392.038 687.824 380.653 667.526" stroke="#FF9737" stroke-width="10" stroke-linecap="round"/>
<path d="M307.928 681.057C302.823 681.713 297.736 682.194 292.627 682.554C290.652 682.694 284.205 684.593 283.236 681.586C282.373 678.911 283.003 674.717 283.023 671.851C283.043 668.953 282.873 666.244 282.669 663.398C282.565 661.947 284.088 662.141 284.901 662.003C290.225 661.104 295.027 658.934 299.804 655.69C305.354 651.92 310.058 646.181 315.694 642.81" stroke="#FF9737" stroke-width="10" stroke-linecap="round"/>
<path d="M373.249 662.401C384.454 668.206 395.745 673.69 407.723 677.225C410.96 678.18 412.478 678.496 415.53 679.118C416.64 679.344 418.409 680.887 418.893 679.608C418.981 679.374 415.14 673.238 414.924 672.779C412.927 668.537 411.316 664.256 412.08 659.09C412.435 656.684 413.076 654.863 414.469 653.073C415.662 651.541 407.874 647.848 407.871 647.847C389.94 637.57 370.793 630.903 351.231 625.671" stroke="#FF9737" stroke-width="10" stroke-linecap="round"/>
<path d="M315.875 637.346C318.933 639.056 321.591 641.926 324.851 643.113C325.917 643.501 327.523 643.316 328.409 644.186C330.386 646.126 334.661 642.215 336.266 640.873C339.886 637.845 343.531 633.653 347.987 633.748" stroke="#FF9737" stroke-width="10" stroke-linecap="round"/>
<path d="M1091.1 398.157C1093.9 419.242 1099.45 439.697 1104.44 460.338C1105.1 463.056 1104.84 464.538 1107.77 464.314C1113.02 463.913 1118.26 462.601 1123.36 461.345C1126.29 460.622 1129.4 459.954 1132.22 458.822C1133.76 458.203 1132.59 454.113 1132.52 453.077C1131.62 438.587 1127.67 424.729 1126.2 410.338C1126.07 409.071 1125.43 405.51 1126.21 406.514C1128.8 409.831 1131.03 413.773 1133.38 417.272C1138.99 425.612 1143.01 434.663 1147.93 443.364C1148.59 444.53 1153.48 453.805 1154.69 453.092C1157.22 451.61 1159.24 449.118 1161.39 447.185C1164.5 444.392 1167.83 441.776 1171.34 439.491C1173.89 437.827 1176.52 436.394 1179.38 435.354C1181.43 434.608 1174.73 426.585 1174.09 425.659C1166.1 414.044 1158.75 401.855 1152.76 389.082C1150.79 384.872 1148.77 380.683 1146.53 376.613C1145.88 375.417 1145.22 373.579 1144.34 372.605C1143.05 371.186 1131.31 377.221 1129.8 377.769C1115.29 383.051 1101.98 390.76 1087.46 396.045" stroke="#FF9737" stroke-width="10" stroke-linecap="round"/>
<path d="M712.32 175.671C712.32 165.328 714.696 153.855 720.397 145.078C728.061 133.28 745.007 130.496 758.09 132.076C774.692 134.082 775.32 154.136 775.32 167.411" stroke="#FF9737" stroke-width="10" stroke-linecap="round"/>
<path d="M713.32 178.504C735.799 178.504 759.772 180.218 781.32 172.671" stroke="#FF9737" stroke-width="10" stroke-linecap="round"/>
<path d="M743.32 132.671C743.554 130.645 744.32 128.712 744.32 126.671" stroke="#FF9737" stroke-width="10" stroke-linecap="round"/>
<path d="M759.32 131.089C746.65 131.089 734.112 129.337 721.446 129.728C715.999 129.896 709.526 130.956 706.188 135.754C702.806 140.614 700.355 148.282 699.527 154.18C698.538 161.23 697.626 169.931 694.144 176.222C693.311 177.727 692.385 179.056 695.345 178.36C703.666 176.402 711.907 177.737 720.284 178.671" stroke="#FF9737" stroke-width="10" stroke-linecap="round"/>
<path d="M714.32 179.27C731.468 189.22 751.406 193.786 771.271 193.669C778.246 193.628 795.195 193.926 797.878 185.289C801.194 174.611 785 170.815 778.132 169.671" stroke="#FF9737" stroke-width="10" stroke-linecap="round"/>
<path d="M737.32 155.728C738.671 155.728 744.504 153.35 744.787 155.728C745.014 157.636 749.801 158.671 751.32 158.671" stroke="#FF9737" stroke-width="10" stroke-linecap="round"/>
<path d="M1264.74 545C1259.55 551.105 1251.12 554.205 1246.19 560.438C1236.69 572.431 1260.88 598.123 1266.15 606.753" stroke="#FF9737" stroke-width="10" stroke-linecap="round"/>
<path d="M1310.01 206C1313.93 216.866 1329.79 241.243 1314.43 250.925C1305.47 256.576 1291.91 259.197 1284.06 265.615C1274.73 273.248 1283.78 284.551 1288.28 292" stroke="#FF9737" stroke-width="10" stroke-linecap="round"/>
</svg>
