<svg width="390" height="595" viewBox="0 0 390 595" fill="none" xmlns="http://www.w3.org/2000/svg">
<rect width="390" height="595" fill="#FAFAFA"/>
<path d="M303.041 192C298.371 183.904 301.395 166.728 315.425 162.367C327.736 158.539 311.792 147.333 307.349 143" stroke="#FF9737" stroke-width="7" stroke-linecap="round"/>
<path d="M178.025 65C187.119 70.1217 181.23 80.9881 153.91 83.7476C129.935 86.1692 160.984 93.2588 169.637 96" stroke="#FF9737" stroke-width="7" stroke-linecap="round"/>
<path d="M33.9754 392C24.8812 386.878 30.7696 376.012 58.09 373.252C82.0648 370.831 51.0162 363.741 42.3631 361" stroke="#FF9737" stroke-width="7" stroke-linecap="round"/>
<path d="M15.1315 106.349C16.369 117.517 19.1913 128.302 21.6939 139.196C22.0235 140.63 21.8483 141.423 23.5359 141.253C26.5577 140.947 29.5864 140.157 32.5352 139.399C34.2308 138.963 36.0249 138.554 37.661 137.902C38.5549 137.546 37.9553 135.39 37.9365 134.84C37.6739 127.147 35.6492 119.844 35.057 112.214C35.0049 111.541 34.6988 109.658 35.1318 110.179C36.5621 111.898 37.7721 113.956 39.0594 115.776C42.1281 120.115 44.2755 124.86 46.947 129.402C47.3052 130.011 49.9513 134.859 50.6593 134.459C52.132 133.626 53.3371 132.265 54.6061 131.199C56.4396 129.658 58.3968 128.208 60.4472 126.931C61.9404 126.001 63.4769 125.193 65.1358 124.589C66.3255 124.156 62.6226 120.005 62.2731 119.524C57.8879 113.485 53.8845 107.129 50.6751 100.439C49.617 98.2335 48.5294 96.0406 47.3181 93.9144C46.9622 93.2897 46.62 92.3231 46.1297 91.8205C45.4155 91.0884 38.57 94.5051 37.6969 94.8229C29.2766 97.8877 21.5044 102.222 13.0779 105.289" stroke="#FF9737" stroke-width="7" stroke-linecap="round"/>
<path d="M285 68C285 57.6568 286.848 46.1841 291.282 37.407C297.242 25.609 310.423 22.8246 320.598 24.4049C333.511 26.4105 334 46.4654 334 59.7399" stroke="#FF9737" stroke-width="5" stroke-linecap="round"/>
<path d="M286 70.8327C303.52 70.8327 322.205 72.5472 339 65" stroke="#FF9737" stroke-width="5" stroke-linecap="round"/>
<path d="M309 25C309.234 22.9742 310 21.0405 310 19" stroke="#FF9737" stroke-width="5" stroke-linecap="round"/>
<path d="M322 23.4176C312.017 23.4176 302.139 21.6658 292.16 22.057C287.868 22.2252 282.768 23.2848 280.138 28.0825C277.474 32.943 275.542 40.6115 274.89 46.509C274.111 53.559 273.392 62.2601 270.649 68.5509C269.993 70.0555 269.263 71.3854 271.595 70.689C278.151 68.7312 284.644 70.0656 291.244 71" stroke="#FF9737" stroke-width="5" stroke-linecap="round"/>
<path d="M286 71.5991C299.473 81.5486 315.139 86.1152 330.747 85.9978C336.227 85.9565 349.545 86.2549 351.652 77.6176C354.258 66.9397 341.534 63.1438 336.138 62" stroke="#FF9737" stroke-width="5" stroke-linecap="round"/>
<path d="M304 48.0572C305.061 48.0572 309.644 45.6785 309.867 48.0572C310.045 49.9648 313.806 51 315 51" stroke="#FF9737" stroke-width="5" stroke-linecap="round"/>
<path d="M275.085 326.087C271.297 337.882 266.811 349.892 261.695 361.075C261.321 361.894 260.717 362.752 260.434 363.615C260.035 364.836 263.492 364.718 263.697 364.734C276.137 365.721 288.721 365.268 301.173 366.268C309.055 366.901 317.03 367.617 324.814 368.961C326.715 369.289 329.409 371.335 328.928 367.833C326.812 352.433 320.43 337.573 313.215 324.976" stroke="#FF9737" stroke-width="7" stroke-linecap="round"/>
<path d="M267.129 333.373C263.893 333.78 260.67 334.078 257.432 334.302C256.181 334.389 252.096 335.567 251.481 333.701C250.934 332.041 251.334 329.438 251.346 327.66C251.359 325.861 251.251 324.18 251.122 322.414C251.056 321.513 252.021 321.633 252.537 321.548C255.91 320.99 258.953 319.643 261.98 317.63C265.498 315.291 268.478 311.729 272.05 309.637" stroke="#FF9737" stroke-width="7" stroke-linecap="round"/>
<path d="M308.523 321.795C315.624 325.398 322.779 328.801 330.369 330.995C332.421 331.588 333.383 331.784 335.317 332.17C336.02 332.31 337.141 333.268 337.448 332.474C337.504 332.329 335.069 328.52 334.933 328.236C333.667 325.603 332.647 322.946 333.13 319.74C333.356 318.247 333.761 317.117 334.645 316.006C335.401 315.055 330.465 312.763 330.464 312.763C319.1 306.385 306.967 302.247 294.57 299" stroke="#FF9737" stroke-width="7" stroke-linecap="round"/>
<path d="M272.164 306.246C274.103 307.307 275.787 309.088 277.853 309.825C278.529 310.066 279.546 309.951 280.108 310.491C281.36 311.695 284.07 309.267 285.087 308.434C287.38 306.555 289.69 303.954 292.514 304.013" stroke="#FF9737" stroke-width="7" stroke-linecap="round"/>
</svg>
