<svg width="444" height="595" viewBox="0 0 444 595" fill="none" xmlns="http://www.w3.org/2000/svg">
<path d="M4.79758 113.399C6.14507 124.37 8.97862 134.991 11.5129 145.713C11.8466 147.125 11.6947 147.9 13.281 147.76C16.1213 147.51 18.9604 146.785 21.7247 146.09C23.3142 145.69 24.9969 145.317 26.5268 144.705C27.3628 144.37 26.763 142.247 26.7363 141.707C26.3635 134.16 24.3378 126.966 23.6557 119.475C23.5956 118.815 23.2767 116.963 23.6929 117.481C25.0677 119.19 26.2407 121.228 27.4826 123.033C30.4429 127.338 32.5424 132.025 35.132 136.523C35.4793 137.126 38.05 141.923 38.7101 141.542C40.0833 140.749 41.1958 139.434 42.3734 138.409C44.0747 136.929 45.894 135.539 47.8039 134.32C49.1948 133.432 50.6284 132.665 52.1806 132.1C53.2937 131.695 49.7393 127.565 49.4023 127.087C45.1746 121.094 41.3012 114.797 38.1699 108.185C37.1376 106.005 36.0778 103.837 34.9024 101.732C34.5571 101.114 34.2191 100.161 33.7493 99.6598C33.0648 98.9302 26.6747 102.169 25.8577 102.466C17.9789 105.334 10.7311 109.457 2.84662 112.327" stroke="#0133FF" stroke-width="5" stroke-linecap="round"/>
<path d="M289.073 53.3732C289.073 46.1175 290.56 38.0696 294.129 31.9125C298.927 23.6363 309.535 21.683 317.725 22.7916C328.119 24.1985 328.512 38.2669 328.512 47.5788" stroke="#0133FF" stroke-width="5" stroke-linecap="round"/>
<path d="M289.878 55.3601C303.98 55.3601 319.019 56.5628 332.537 51.2686" stroke="#0133FF" stroke-width="5" stroke-linecap="round"/>
<path d="M308.39 23.209C308.578 21.7879 309.195 20.4314 309.195 19" stroke="#0133FF" stroke-width="5" stroke-linecap="round"/>
<path d="M318.854 22.0989C310.819 22.0989 302.868 20.87 294.836 21.1445C291.381 21.2625 287.277 22.0058 285.16 25.3713C283.015 28.7809 281.461 34.1603 280.936 38.2974C280.309 43.2429 279.73 49.3467 277.522 53.7596C276.994 54.8151 276.407 55.748 278.284 55.2595C283.561 53.8861 288.787 54.8222 294.099 55.4776" stroke="#0133FF" stroke-width="5" stroke-linecap="round"/>
<path d="M289.878 55.8978C300.722 62.8772 313.331 66.0807 325.894 65.9983C330.305 65.9694 341.024 66.1787 342.72 60.1197C344.817 52.6292 334.576 49.9664 330.233 49.1641" stroke="#0133FF" stroke-width="5" stroke-linecap="round"/>
<path d="M304.366 39.3835C305.22 39.3835 308.909 37.7148 309.088 39.3835C309.231 40.7216 312.259 41.4478 313.22 41.4478" stroke="#0133FF" stroke-width="5" stroke-linecap="round"/>
<path d="M308.792 307.383C306.063 318.872 302.832 330.57 299.146 341.463C298.877 342.26 298.441 343.096 298.238 343.937C297.95 345.125 300.441 345.011 300.589 345.027C309.551 345.988 318.616 345.546 327.587 346.52C333.265 347.137 339.011 347.834 344.619 349.144C345.988 349.463 347.929 351.456 347.582 348.045C346.058 333.045 341.46 318.571 336.262 306.301" stroke="#0133FF" stroke-width="5" stroke-linecap="round"/>
<path d="M303.061 314.48C300.73 314.877 298.408 315.167 296.075 315.385C295.173 315.47 292.23 316.617 291.788 314.8C291.394 313.183 291.682 310.648 291.691 308.915C291.7 307.164 291.622 305.526 291.529 303.805C291.482 302.928 292.177 303.045 292.548 302.962C294.978 302.419 297.171 301.107 299.352 299.146C301.886 296.867 304.033 293.398 306.606 291.36" stroke="#0133FF" stroke-width="5" stroke-linecap="round"/>
<path d="M332.882 303.203C337.998 306.712 343.153 310.027 348.621 312.164C350.099 312.741 350.792 312.932 352.185 313.308C352.692 313.445 353.499 314.377 353.721 313.604C353.761 313.463 352.007 309.754 351.908 309.476C350.997 306.912 350.261 304.324 350.61 301.202C350.772 299.747 351.065 298.646 351.701 297.564C352.246 296.638 348.69 294.406 348.689 294.405C340.502 288.193 331.761 284.162 322.83 281" stroke="#0133FF" stroke-width="5" stroke-linecap="round"/>
<path d="M306.689 288.058C308.085 289.091 309.298 290.826 310.787 291.544C311.273 291.778 312.006 291.666 312.411 292.192C313.313 293.365 315.265 291.001 315.998 290.19C317.651 288.359 319.315 285.826 321.349 285.883" stroke="#0133FF" stroke-width="5" stroke-linecap="round"/>
</svg>
