<svg width="560" height="405" viewBox="0 0 560 405" fill="none" xmlns="http://www.w3.org/2000/svg">
<g clip-path="url(#clip0_899_153)">
<path d="M24.8351 393.447C42.2902 405.199 64.9108 405.789 86.7761 404.345C89.8293 404.144 92.8608 403.908 95.8643 403.653C95.8825 403.649 95.9063 403.65 95.9248 403.646C96.0691 403.633 96.2137 403.62 96.3518 403.612C96.9718 403.558 97.592 403.504 98.2061 403.45L98.061 403.708L97.6057 404.511C97.7693 404.242 97.9328 403.979 98.0965 403.711C98.1446 403.63 98.1986 403.55 98.2464 403.469C103.911 394.257 109.529 384.707 110.962 374.188C112.443 363.27 108.28 350.907 97.998 345.541C96.6495 344.839 95.2215 344.28 93.7404 343.875C93.1254 343.7 92.5022 343.558 91.8718 343.433C88.0156 342.633 84.0009 342.807 80.2406 343.937C76.4802 345.068 73.1099 347.114 70.4762 349.865C67.8425 352.617 66.0404 355.974 65.2553 359.592C64.4702 363.21 64.7304 366.958 66.0092 370.451C57.2918 362.097 58.918 348.545 61.925 337.219C64.9379 325.893 68.5853 313.29 62.4574 303.117C59.0509 297.455 53.0605 293.942 46.3379 292.527C46.1316 292.485 45.9257 292.444 45.719 292.408C37.7092 290.891 29.3821 292.255 22.401 296.226C9.54666 303.796 2.94451 318.149 0.801738 332.209C-2.65068 354.835 4.98957 380.085 24.8351 393.447Z" fill="#F2F2F2"/>
<path d="M30.4707 357.178C30.9774 362.169 32.2602 367.064 34.2786 371.709C36.1387 375.819 38.6458 379.646 41.717 383.063C47.9905 390.116 56.286 395.418 65.295 398.951C72.1836 401.588 79.4011 403.4 86.776 404.345C89.8292 404.144 92.8608 403.908 95.8643 403.653C95.8824 403.649 95.9063 403.65 95.9247 403.646C96.069 403.633 96.2137 403.62 96.3518 403.612C96.9717 403.558 97.5919 403.504 98.206 403.45L98.061 403.708L97.6057 404.511C97.7693 404.242 97.9328 403.979 98.0964 403.711C98.1445 403.63 98.1985 403.55 98.2463 403.469C92.7174 398.321 88.5894 392.009 86.2081 385.063C83.8268 378.117 83.2617 370.739 84.5602 363.546C85.9189 356.405 89.0645 349.664 93.7403 343.875C93.1254 343.7 92.5021 343.558 91.8718 343.433C90.0948 345.703 88.536 348.116 87.2137 350.643C82.4691 359.655 80.9555 369.855 82.8968 379.734C84.7015 388.673 89.1979 396.945 95.8578 403.58C95.2747 403.541 94.6858 403.497 94.1096 403.448C83.1951 402.584 72.3029 400.391 62.4033 395.899C53.9414 392.153 46.595 386.52 41.0112 379.496C35.0157 371.768 32.3738 362.473 31.92 353.026C31.4387 342.912 32.843 332.621 35.3128 322.785C37.8347 312.702 41.6675 302.945 46.7256 293.731C46.8387 293.522 46.8615 293.281 46.7893 293.057C46.7172 292.832 46.5555 292.643 46.3378 292.527C46.1564 292.412 45.934 292.37 45.719 292.408C45.6138 292.434 45.5162 292.482 45.4336 292.548C45.3509 292.614 45.2853 292.697 45.2417 292.79C44.6177 293.928 44.0053 295.067 43.4162 296.218C38.51 305.811 34.898 315.936 32.663 326.361C30.4934 336.417 29.3353 346.937 30.4707 357.178Z" fill="white"/>
<path d="M548.77 348.201H260.08C257.103 348.198 254.248 347.091 252.143 345.124C250.037 343.156 248.853 340.488 248.85 337.706V10.4954C248.853 7.71283 250.037 5.04509 252.143 3.0775C254.248 1.1099 257.103 0.00313249 260.08 0H548.77C551.747 0.00313249 554.602 1.1099 556.707 3.0775C558.812 5.04509 559.997 7.71283 560 10.4954V337.706C559.997 340.488 558.812 343.156 556.707 345.124C554.602 347.091 551.747 348.198 548.77 348.201V348.201ZM260.08 1.23476C257.453 1.23753 254.934 2.2141 253.076 3.95021C251.219 5.68632 250.174 8.0402 250.171 10.4954V337.706C250.174 340.161 251.219 342.515 253.076 344.251C254.934 345.987 257.453 346.964 260.08 346.966H548.77C551.397 346.964 553.915 345.987 555.773 344.251C557.631 342.515 558.676 340.161 558.679 337.706V10.4954C558.676 8.0402 557.631 5.68632 555.773 3.95021C553.915 2.2141 551.397 1.23753 548.77 1.23476H260.08Z" fill="#3F3D56"/>
<path d="M559.339 25.677H249.51V26.9118H559.339V25.677Z" fill="#3F3D56"/>
<path d="M264.705 18.5214C267.624 18.5214 269.99 16.3101 269.99 13.5823C269.99 10.8546 267.624 8.64331 264.705 8.64331C261.786 8.64331 259.42 10.8546 259.42 13.5823C259.42 16.3101 261.786 18.5214 264.705 18.5214Z" fill="#3F3D56"/>
<path d="M281.22 18.5214C284.138 18.5214 286.504 16.3101 286.504 13.5823C286.504 10.8546 284.138 8.64331 281.22 8.64331C278.301 8.64331 275.935 10.8546 275.935 13.5823C275.935 16.3101 278.301 18.5214 281.22 18.5214Z" fill="#3F3D56"/>
<path d="M297.735 18.5214C300.654 18.5214 303.02 16.3101 303.02 13.5823C303.02 10.8546 300.654 8.64331 297.735 8.64331C294.816 8.64331 292.45 10.8546 292.45 13.5823C292.45 16.3101 294.816 18.5214 297.735 18.5214Z" fill="#3F3D56"/>
<path d="M504.019 74.7027H297.906C295.629 74.7027 293.444 73.8571 291.834 72.352C290.223 70.8468 289.318 68.8054 289.318 66.6768C289.318 64.5482 290.223 62.5068 291.834 61.0016C293.444 59.4965 295.629 58.6509 297.906 58.6509H504.019C506.296 58.6509 508.481 59.4965 510.091 61.0016C511.702 62.5068 512.607 64.5482 512.607 66.6768C512.607 68.8054 511.702 70.8468 510.091 72.352C508.481 73.8571 506.296 74.7027 504.019 74.7027V74.7027ZM297.906 59.8856C295.979 59.8856 294.131 60.6011 292.768 61.8747C291.405 63.1483 290.64 64.8757 290.64 66.6768C290.64 68.4779 291.405 70.2053 292.768 71.4789C294.131 72.7525 295.979 73.468 297.906 73.468H504.019C505.946 73.468 507.794 72.7525 509.157 71.4789C510.52 70.2053 511.286 68.4779 511.286 66.6768C511.286 64.8757 510.52 63.1483 509.157 61.8747C507.794 60.6011 505.946 59.8856 504.019 59.8856H297.906Z" fill="#3F3D56"/>
<path d="M375.027 187.683H293.771C290.794 187.68 287.939 186.573 285.834 184.605C283.729 182.638 282.544 179.97 282.541 177.188V114.832C282.544 112.05 283.729 109.382 285.834 107.414C287.939 105.447 290.794 104.34 293.771 104.337H375.027C378.005 104.34 380.859 105.447 382.965 107.414C385.07 109.382 386.254 112.05 386.258 114.832V177.188C386.254 179.97 385.07 182.638 382.965 184.605C380.859 186.573 378.005 187.68 375.027 187.683V187.683ZM293.771 105.572C291.144 105.574 288.626 106.551 286.768 108.287C284.91 110.023 283.865 112.377 283.862 114.832V177.188C283.865 179.643 284.91 181.997 286.768 183.733C288.626 185.469 291.144 186.445 293.771 186.448H375.027C377.655 186.445 380.173 185.469 382.031 183.733C383.889 181.997 384.934 179.643 384.937 177.188V114.832C384.934 112.377 383.889 110.023 382.031 108.287C380.173 106.551 377.655 105.574 375.027 105.572H293.771Z" fill="#3F3D56"/>
<path d="M433.822 107.924H515.078C520.672 107.924 525.148 112.154 525.148 117.302V179.657C525.148 184.805 520.672 189.035 515.078 189.035H433.822C428.228 189.035 423.752 184.805 423.752 179.657V117.302C423.752 112.154 428.228 107.924 433.822 107.924Z" fill="white" stroke="black"/>
<path d="M375.027 303.75H293.771C290.794 303.747 287.939 302.64 285.834 300.672C283.729 298.705 282.544 296.037 282.541 293.255V230.899C282.544 228.117 283.729 225.449 285.834 223.481C287.939 221.514 290.794 220.407 293.771 220.404H375.027C378.005 220.407 380.859 221.514 382.965 223.481C385.07 225.449 386.254 228.117 386.258 230.899V293.255C386.254 296.037 385.07 298.705 382.965 300.672C380.859 302.64 378.005 303.747 375.027 303.75V303.75ZM293.771 221.639C291.144 221.641 288.626 222.618 286.768 224.354C284.91 226.09 283.865 228.444 283.862 230.899V293.255C283.865 295.71 284.91 298.064 286.768 299.8C288.626 301.536 291.144 302.512 293.771 302.515H375.027C377.655 302.512 380.173 301.536 382.031 299.8C383.889 298.064 384.934 295.71 384.937 293.255V230.899C384.934 228.444 383.889 226.09 382.031 224.354C380.173 222.618 377.655 221.641 375.027 221.639H293.771Z" fill="#3F3D56"/>
<path d="M515.078 223.491H433.822C427.984 223.491 423.252 227.913 423.252 233.369V295.724C423.252 301.18 427.984 305.602 433.822 305.602H515.078C520.915 305.602 525.648 301.18 525.648 295.724V233.369C525.648 227.913 520.915 223.491 515.078 223.491Z" fill="#F2F2F2"/>
<path d="M314.179 172.602C314.164 172.602 314.149 172.602 314.135 172.601L304.893 172.281C304.604 172.273 304.329 172.168 304.118 171.985C303.906 171.802 303.772 171.554 303.741 171.286C303.105 165.982 300.488 138.953 311.454 127.719C313.006 126.097 314.925 124.818 317.072 123.975C319.219 123.132 321.54 122.747 323.866 122.847C323.96 122.852 324.055 122.833 324.139 122.792C324.222 122.752 324.293 122.69 324.342 122.614L326.579 119.329C326.702 119.15 326.875 119.008 327.08 118.917C327.285 118.827 327.512 118.791 327.737 118.815C329.531 119.018 338.675 119.974 342.52 118.934C342.746 118.871 342.988 118.873 343.214 118.938C343.44 119.003 343.64 119.128 343.79 119.299L346.728 122.655C346.779 122.716 346.844 122.764 346.918 122.797C346.993 122.829 347.075 122.844 347.157 122.841C348.651 122.813 353.891 123.083 358.477 127.877C363.442 133.067 368.567 144.778 364.781 171.091C364.742 171.361 364.599 171.609 364.379 171.788C364.16 171.968 363.878 172.068 363.586 172.069H356.307C356.018 172.068 355.739 171.97 355.521 171.793C355.302 171.616 355.159 171.372 355.116 171.105L352.738 155.772C352.718 155.646 352.649 155.532 352.543 155.451C352.437 155.371 352.303 155.331 352.167 155.338C352.031 155.346 351.903 155.402 351.809 155.493C351.714 155.585 351.66 155.707 351.658 155.834L351.494 163.033C351.489 163.247 351.419 163.455 351.292 163.633C351.165 163.81 350.987 163.951 350.778 164.038C348.183 165.104 334.472 170.105 319.318 163.842C319.113 163.755 318.938 163.618 318.812 163.444C318.685 163.27 318.613 163.067 318.603 162.858L318.305 156.317C318.299 156.189 318.242 156.068 318.145 155.978C318.048 155.888 317.918 155.835 317.781 155.831C317.645 155.827 317.511 155.87 317.408 155.954C317.304 156.037 317.238 156.154 317.223 156.281L315.375 171.603C315.341 171.877 315.2 172.131 314.98 172.315C314.759 172.499 314.474 172.601 314.179 172.602V172.602Z" fill="black"/>
<path d="M352.412 285.561H352.405L316.189 285.347C315.926 285.345 315.672 285.254 315.476 285.09C315.28 284.926 315.154 284.7 315.123 284.456L311.48 255.517C311.458 255.331 311.364 255.158 311.217 255.03C311.069 254.903 310.877 254.83 310.676 254.825C307.801 254.737 300.96 254.124 299.543 250.34C298.28 246.97 301.733 242 309.806 235.566C309.943 235.456 310.108 235.38 310.284 235.345C310.461 235.31 310.644 235.317 310.818 235.365C310.991 235.414 311.148 235.502 311.276 235.621C311.403 235.741 311.496 235.889 311.547 236.051L315.737 249.562C315.789 249.724 315.894 249.867 316.038 249.969C316.182 250.071 316.358 250.127 316.539 250.129L350.877 250.344C351.057 250.346 351.232 250.293 351.378 250.194C351.523 250.095 351.631 249.955 351.684 249.794L356.347 235.929C356.398 235.775 356.489 235.634 356.612 235.519C356.734 235.404 356.885 235.318 357.05 235.269C357.215 235.22 357.391 235.209 357.562 235.237C357.733 235.265 357.894 235.331 358.032 235.429C361.214 237.7 371.463 245.497 369.776 250.483C368.893 253.095 364.908 254.551 357.931 254.81C357.731 254.817 357.54 254.89 357.393 255.017C357.246 255.144 357.152 255.317 357.129 255.503L353.485 284.669C353.454 284.915 353.328 285.142 353.13 285.306C352.932 285.471 352.677 285.562 352.412 285.561Z" fill="#C54938"/>
<path d="M511.114 163.7C499.734 165.747 489.002 170.189 479.731 176.689C479.262 175.523 478.379 174.542 477.229 173.911C476.444 173.456 475.587 173.12 474.689 172.914C473.873 172.72 473.089 173.183 472.368 173.852C471.54 174.709 470.845 175.67 470.304 176.709C457.867 168.731 439.001 163.64 439.001 163.64V162.044C439.016 161.668 439.057 161.294 439.124 160.923C439.188 160.494 439.268 160.115 439.369 159.651C440.97 152.042 447.298 134.655 447.298 134.655H454.452L468.324 137.348L483.93 136.455L499.648 133.399L501.686 133C505.085 135.493 508.942 152.945 510.458 160.374C510.65 161.316 510.799 162.094 510.911 162.668C511.045 163.316 511.114 163.7 511.114 163.7Z" fill="#686B65"/>
<path d="M464.423 240.295C464.423 240.295 461.1 241.072 455.946 254.118C450.792 267.164 448.966 284.019 448.966 284.019C448.966 284.019 446.068 288.606 458.438 288.913C458.438 288.913 457.443 291.942 464.423 291.477C471.403 291.012 470.398 291.016 470.398 291.016C470.398 291.016 474.885 288.376 476.88 288.841C478.875 289.306 480.122 289.464 482.281 291.17C484.44 292.876 491.342 292.181 491.425 290.863C491.48 290.215 491.48 289.565 491.425 288.917C491.425 288.917 501.979 289.54 499.984 282.394C497.989 275.248 496.327 263.521 496.327 263.521C496.327 263.521 490.927 240.611 484.773 240.3C478.619 239.988 464.423 240.295 464.423 240.295Z" fill="white"/>
<path d="M127.262 218.302C138.207 218.302 147.08 210.01 147.08 199.781C147.08 189.552 138.207 181.26 127.262 181.26C116.316 181.26 107.443 189.552 107.443 199.781C107.443 210.01 116.316 218.302 127.262 218.302Z" fill="#2F2E41"/>
<path d="M128.926 218.338C137.887 218.338 145.151 211.549 145.151 203.174C145.151 194.8 137.887 188.011 128.926 188.011C119.965 188.011 112.7 194.8 112.7 203.174C112.7 211.549 119.965 218.338 128.926 218.338Z" fill="#FFB8B8"/>
<path d="M190.719 249.296C190.461 249.538 190.225 249.799 190.011 250.076L157.269 248.995L153.524 242.431L142.187 246.418L147.608 258.64C148.046 259.627 148.815 260.455 149.799 260.999C150.783 261.543 151.93 261.775 153.067 261.658L190.117 257.856C190.978 258.898 192.158 259.669 193.499 260.069C194.841 260.469 196.281 260.477 197.628 260.093C198.975 259.709 200.165 258.951 201.04 257.92C201.914 256.889 202.432 255.633 202.525 254.32C202.617 253.006 202.279 251.698 201.557 250.568C200.834 249.439 199.76 248.542 198.479 247.996C197.197 247.451 195.768 247.283 194.382 247.515C192.996 247.747 191.718 248.368 190.719 249.296H190.719Z" fill="#FFB8B8"/>
<path d="M137.825 252.32C137.408 252.145 137.036 251.888 136.735 251.566C136.434 251.245 136.21 250.866 136.08 250.457L131.519 236.153C130.529 234.172 130.42 231.905 131.215 229.849C132.011 227.792 133.646 226.115 135.763 225.184C137.88 224.253 140.306 224.145 142.508 224.882C144.71 225.62 146.51 227.144 147.512 229.12L156.346 241.612C156.598 241.969 156.765 242.372 156.835 242.794C156.905 243.217 156.877 243.648 156.753 244.059C156.629 244.471 156.411 244.852 156.115 245.178C155.819 245.503 155.451 245.765 155.037 245.946L140.475 252.301C140.061 252.482 139.61 252.578 139.152 252.581C138.695 252.584 138.242 252.495 137.825 252.32V252.32Z" fill="#CCCCCC"/>
<path d="M170.074 397.546L177.187 393.927L165.636 366.564L155.138 371.905L170.074 397.546Z" fill="#FFB8B8"/>
<path d="M166.995 396.299L181.004 389.172L181.004 389.172C182.177 388.575 183.463 388.201 184.791 388.069C186.118 387.937 187.46 388.051 188.74 388.404C190.021 388.757 191.214 389.342 192.252 390.126C193.29 390.91 194.153 391.878 194.791 392.974L194.949 393.245L172.013 404.913L166.995 396.299Z" fill="#2F2E41"/>
<path d="M91.7989 397.576H99.8974L103.751 368.381L91.7969 368.382L91.7989 397.576Z" fill="#FFB8B8"/>
<path d="M89.7324 395.105L105.682 395.104H105.683C107.018 395.104 108.339 395.35 109.573 395.827C110.806 396.305 111.926 397.005 112.87 397.887C113.814 398.769 114.563 399.816 115.074 400.968C115.585 402.121 115.847 403.356 115.847 404.604V404.912L89.7329 404.913L89.7324 395.105Z" fill="#2F2E41"/>
<path d="M142.125 268.001L144.768 297.635L174.243 380.275C174.359 380.6 174.401 380.944 174.367 381.285C174.333 381.626 174.224 381.957 174.046 382.256C173.867 382.556 173.625 382.817 173.332 383.024C173.04 383.231 172.705 383.379 172.348 383.458L163.314 385.468C162.736 385.597 162.128 385.54 161.589 385.306C161.049 385.071 160.611 384.674 160.343 384.178L122.659 314.32C122.536 314.092 122.341 313.905 122.1 313.786C121.859 313.666 121.584 313.619 121.314 313.65C121.043 313.682 120.789 313.792 120.588 313.964C120.386 314.136 120.247 314.362 120.188 314.611L103.604 385.215C103.475 385.765 103.149 386.257 102.679 386.61C102.21 386.963 101.626 387.155 101.023 387.155H92.6191C92.269 387.156 91.9224 387.091 91.5994 386.965C91.2764 386.839 90.9835 386.654 90.7378 386.421C90.492 386.188 90.2984 385.911 90.1681 385.608C90.0378 385.304 89.9734 384.979 89.9788 384.652C90.749 335.696 88.2084 279.912 108.434 271.088L111.737 263.062L142.125 268.001Z" fill="#2F2E41"/>
<path d="M110.786 265.164L107.38 245.916C106.816 242.759 107.112 239.521 108.24 236.499C109.367 233.477 111.291 230.77 113.833 228.625C116.318 226.502 119.335 224.997 122.606 224.25C125.877 223.503 129.296 223.537 132.549 224.35C132.742 224.398 132.936 224.448 133.129 224.499C137.132 225.57 140.686 227.763 143.312 230.782C145.938 233.802 147.509 237.501 147.813 241.382C148.463 249.741 147.881 261.869 141.419 272.17L141.294 272.371L110.786 265.164Z" fill="#CCCCCC"/>
<path d="M145.067 195.115C141.359 197.503 136.958 198.774 132.455 198.758C134.061 199.798 135.89 200.501 137.815 200.818C131.828 202.019 125.64 202.051 119.639 200.914C118.305 200.714 117.018 200.301 115.834 199.692C115.244 199.385 114.73 198.964 114.325 198.458C113.921 197.953 113.635 197.373 113.485 196.757C113.087 194.628 114.862 192.694 116.706 191.39C119.531 189.425 122.788 188.07 126.241 187.426C129.694 186.781 133.257 186.861 136.673 187.661C138.904 188.2 141.138 189.11 142.587 190.784C144.035 192.458 144.465 195.039 143.084 196.763L145.067 195.115Z" fill="#2F2E41"/>
<path d="M127.001 181.168C128.882 174.071 122.141 166.186 114.318 166.333C106.382 166.483 100.542 173.185 96.5275 179.585C92.5129 185.985 88.5231 193.239 81.153 195.995C78.7141 196.906 76.0713 197.238 73.4614 196.96C70.8515 196.683 68.3561 195.804 66.199 194.403C64.0419 193.002 62.2905 191.123 61.1019 188.934C59.9132 186.745 59.3244 184.314 59.3883 181.86C58.3988 189.635 59.7697 198.047 65.1349 204.061C70.5001 210.074 80.4832 212.785 87.6588 208.743C91.757 206.435 94.3765 202.423 96.536 198.433C98.6956 194.442 100.617 190.234 103.889 186.972C107.162 183.709 112.221 181.544 116.775 182.917C118.583 183.461 120.205 184.524 122.072 184.847C123.94 185.17 126.291 184.34 126.546 182.581L127.001 181.168Z" fill="#2F2E41"/>
<path d="M87.8945 309.856C87.2211 309.119 86.7289 308.252 86.4526 307.317C86.1763 306.383 86.1226 305.403 86.2953 304.447C86.4681 303.491 86.863 302.582 87.4523 301.784C88.0417 300.986 88.8111 300.318 89.7063 299.828L103.781 240.871L118.059 246.347L99.7341 302.579C100.515 304.039 100.696 305.716 100.243 307.292C99.7891 308.869 98.7325 310.235 97.2731 311.132C95.8138 312.029 94.053 312.395 92.3245 312.159C90.5959 311.924 89.0197 311.105 87.8945 309.856H87.8945Z" fill="#FFB8B8"/>
<path d="M98.2045 249.328C97.9797 248.956 97.8435 248.543 97.8052 248.117C97.7668 247.692 97.8272 247.263 97.9822 246.861L103.395 232.819C103.855 230.675 105.207 228.789 107.153 227.575C109.099 226.362 111.48 225.918 113.775 226.343C116.07 226.768 118.092 228.026 119.396 229.841C120.7 231.656 121.181 233.881 120.732 236.027L119.91 250.981C119.887 251.408 119.765 251.825 119.554 252.204C119.342 252.583 119.046 252.915 118.685 253.177C118.323 253.439 117.906 253.625 117.461 253.723C117.016 253.821 116.553 253.828 116.105 253.744L100.349 250.783C99.9007 250.699 99.4769 250.526 99.1068 250.275C98.7367 250.024 98.429 249.701 98.2045 249.328Z" fill="#CCCCCC"/>
<path d="M213.521 242.716L213.287 242.686L214.17 236.684C214.305 235.762 214.043 234.828 213.442 234.087C212.841 233.346 211.949 232.858 210.963 232.732L197.355 230.983C196.369 230.857 195.369 231.101 194.576 231.663C193.783 232.225 193.262 233.059 193.126 233.98L188.282 266.911C188.147 267.833 188.408 268.767 189.01 269.508C189.611 270.249 190.503 270.737 191.489 270.863L205.097 272.611C206.083 272.738 207.082 272.494 207.875 271.932C208.668 271.37 209.19 270.536 209.326 269.615L212.658 246.959L212.893 246.989L213.521 242.716Z" fill="#3F3D56"/>
<path d="M210.535 234.493L208.841 234.275C208.893 234.464 208.894 234.661 208.845 234.85C208.795 235.039 208.697 235.214 208.558 235.36C208.42 235.505 208.245 235.616 208.05 235.683C207.854 235.75 207.644 235.772 207.438 235.745L200.002 234.79C199.795 234.763 199.599 234.69 199.43 234.576C199.262 234.462 199.125 234.311 199.034 234.136C198.942 233.961 198.898 233.768 198.905 233.573C198.913 233.379 198.971 233.189 199.075 233.021L197.492 232.817C197.145 232.773 196.791 232.792 196.451 232.875C196.112 232.958 195.793 233.103 195.513 233.302C195.234 233.5 194.998 233.747 194.821 234.031C194.644 234.314 194.528 234.627 194.48 234.952L189.867 266.317C189.819 266.642 189.84 266.973 189.929 267.29C190.018 267.608 190.173 267.905 190.385 268.167C190.597 268.428 190.862 268.648 191.165 268.814C191.468 268.979 191.803 269.088 192.151 269.132L205.194 270.808C205.896 270.898 206.608 270.724 207.173 270.323C207.738 269.923 208.109 269.33 208.206 268.673V268.673L212.819 237.308C212.916 236.651 212.729 235.986 212.301 235.458C211.873 234.93 211.237 234.583 210.535 234.493L210.535 234.493Z" fill="white"/>
<path d="M268.26 405H16.5649C16.3897 405 16.2217 404.935 16.0978 404.819C15.9739 404.703 15.9043 404.546 15.9043 404.383C15.9043 404.219 15.9739 404.062 16.0978 403.946C16.2217 403.83 16.3897 403.765 16.5649 403.765H268.26C268.435 403.765 268.603 403.83 268.727 403.946C268.851 404.062 268.92 404.219 268.92 404.383C268.92 404.546 268.851 404.703 268.727 404.819C268.603 404.935 268.435 405 268.26 405Z" fill="#3F3D56"/>
</g>
<defs>
<clipPath id="clip0_899_153">
<rect width="560" height="405" fill="white"/>
</clipPath>
</defs>
</svg>
