<svg width="560" height="504" viewBox="0 0 560 504" fill="none" xmlns="http://www.w3.org/2000/svg">
<g clip-path="url(#clip0_899_320)">
<path d="M377.479 357.292H176.592C159.706 357.292 145.969 344.032 145.969 327.734V133.834C145.969 117.536 159.706 104.277 176.592 104.277H377.479C394.365 104.277 408.102 117.536 408.102 133.834V327.734C408.102 344.032 394.365 357.292 377.479 357.292V357.292ZM176.592 109.006C162.385 109.006 150.868 120.122 150.868 133.834V327.734C150.868 341.446 162.385 352.563 176.592 352.563H317.308C364.746 352.563 403.202 315.444 403.202 269.656V133.834C403.202 120.122 391.685 109.006 377.479 109.006H176.592V109.006Z" fill="#F2F2F2"/>
<path d="M198.249 129.169C188.742 129.169 181.007 136.635 181.007 145.812V171.862C181.007 181.039 188.742 188.504 198.249 188.504H225.238C234.745 188.504 242.48 181.039 242.48 171.862V145.812C242.48 136.635 234.745 129.169 225.238 129.169H198.249Z" fill="#F2F2F2"/>
<path d="M198.249 202.502C188.742 202.502 181.007 209.968 181.007 219.145V245.194C181.007 254.371 188.742 261.837 198.249 261.837H225.238C234.745 261.837 242.48 254.371 242.48 245.194V219.145C242.48 209.968 234.745 202.502 225.238 202.502H198.249V202.502Z" fill="#F2F2F2"/>
<path d="M198.249 275.835C188.742 275.835 181.007 283.3 181.007 292.478V318.527C181.007 327.704 188.742 335.17 198.249 335.17H225.238C234.745 335.17 242.48 327.704 242.48 318.527V292.478C242.48 283.3 234.745 275.835 225.238 275.835H198.249Z" fill="#F2F2F2"/>
<path d="M216.146 65.6143C204.166 65.6143 194.42 75.0212 194.42 86.5846V119.408C194.42 130.971 204.166 140.378 216.146 140.378H250.152C262.132 140.378 271.878 130.971 271.878 119.408V86.5846C271.878 75.0212 262.132 65.6143 250.152 65.6143H216.146V65.6143Z" fill="#0FD0A4"/>
<path d="M328.103 157.341C316.123 157.341 306.377 166.748 306.377 178.312V211.135C306.377 222.698 316.123 232.105 328.103 232.105H362.109C374.089 232.105 383.835 222.698 383.835 211.135V178.312C383.835 166.748 374.089 157.341 362.109 157.341H328.103Z" fill="#897BD4"/>
<path d="M279.43 487.719L272.522 487.663L269.464 461.344L279.66 461.427L279.43 487.719Z" fill="#A0616A"/>
<path d="M257.302 498.323C257.287 499.964 258.658 501.315 260.364 501.33L274.1 501.441L276.504 496.736L277.387 501.465L282.57 501.51L281.261 484.645L279.458 484.529L272.103 484.04L269.731 483.886L269.689 488.658L258.655 495.882C257.816 496.432 257.31 497.344 257.302 498.323H257.302Z" fill="#2F2E41"/>
<path d="M314.579 487.719L307.67 487.663L304.612 461.344L314.808 461.427L314.579 487.719Z" fill="#A0616A"/>
<path d="M292.45 498.323C292.435 499.964 293.806 501.315 295.513 501.33L309.248 501.441L311.653 496.736L312.536 501.465L317.718 501.51L316.41 484.645L314.607 484.529L307.252 484.04L304.879 483.886L304.837 488.658L293.804 495.882C292.964 496.432 292.459 497.344 292.45 498.323V498.323Z" fill="#2F2E41"/>
<path d="M252.32 274.928L280.323 275.781L306.852 281.471C306.852 281.471 304.2 284.601 313.043 293.137C313.043 293.137 324.833 313.053 316.58 332.4L313.043 409.788C313.043 409.788 323.356 464.341 315.476 481.704L305.061 482.332L287.439 410.417L278.849 332.969L274.723 409.219C274.723 409.219 290.51 461.555 280.541 482.332L269.262 481.704L249.962 409.219C249.962 409.219 241.709 325.571 242.888 309.638C244.067 293.706 252.32 274.928 252.32 274.928H252.32Z" fill="#2F2E41"/>
<path d="M346.361 152.642C342.533 153.599 340.233 157.37 341.224 161.065C341.679 162.758 342.749 164.135 344.139 165.045L344.139 165.055L343.596 177.751L353.662 182.247L354.465 162.71L354.395 162.712C355.268 161.211 355.57 159.398 355.087 157.6C354.096 153.905 350.189 151.686 346.361 152.642V152.642Z" fill="#A0616A"/>
<path d="M290.102 197.954C287.988 195.931 286.761 193.188 286.715 190.206C286.654 186.204 288.731 182.573 292.272 180.491C296.35 178.094 301.45 178.336 305.264 181.108L336.873 204.079L342.505 170.988L354.597 174.745L351.712 217.835C351.51 220.849 349.745 223.504 346.99 224.938C344.236 226.371 340.968 226.335 338.248 224.842L292.569 199.757C291.651 199.253 290.825 198.645 290.102 197.954V197.954Z" fill="#3F3D56"/>
<path d="M241.905 134.132C243.926 137.413 242.808 141.654 239.409 143.604C237.852 144.498 236.087 144.749 234.436 144.45L234.429 144.457L225.554 153.842L215.126 150.195L228.806 135.774L228.855 135.823C229.33 134.165 230.438 132.672 232.092 131.723C235.491 129.773 239.884 130.851 241.905 134.132V134.132Z" fill="#A0616A"/>
<path d="M245.738 204.146L195.002 190.918C191.981 190.13 189.634 187.935 188.724 185.045C187.813 182.155 188.497 179.07 190.552 176.792L219.934 144.231L231.262 149.781L211.123 177.108L250.326 182.275C255.056 182.899 258.855 186.192 260.002 190.666C260.999 194.55 259.825 198.541 256.862 201.341C254.654 203.428 251.782 204.542 248.805 204.542C247.788 204.542 246.758 204.412 245.738 204.146H245.738Z" fill="#3F3D56"/>
<path d="M318.072 286.313L247.123 289.454C245.175 286.598 245.702 282.303 248.431 276.925C258.735 256.62 250.91 218.206 245.646 198.203C244.169 192.591 248.134 187.012 254.103 186.436L260.792 185.79L266.976 167.57H288.633L297.617 177.478L312.865 186.418C310.09 214.012 298.264 252.976 315.111 272.516C318.796 276.789 319.841 281.411 318.072 286.313V286.313Z" fill="#3F3D56"/>
<path d="M275.049 167.991C286.7 167.991 296.144 158.875 296.144 147.63C296.144 136.385 286.7 127.27 275.049 127.27C263.399 127.27 253.955 136.385 253.955 147.63C253.955 158.875 263.399 167.991 275.049 167.991Z" fill="#A0616A"/>
<path d="M298.92 134.597C301.854 124.269 269.867 115.413 263.651 123.73C262.787 122.548 259.593 121.829 258.127 122.192C256.661 122.555 255.429 123.462 254.226 124.339C252.573 125.566 250.859 126.835 249.844 128.598C248.822 130.354 248.664 132.748 250.04 134.271C251.13 135.482 253.045 141.92 254.683 142.24C255.826 142.464 256.788 142.646 257.614 142.776C258.351 141.739 260.229 140.436 260.094 139.181C261.206 139.892 260.8 141.143 260.576 142.421C259.829 146.678 243.004 179.63 252.64 169.92C253.595 170.464 254.775 170.972 256.135 171.436C258.443 168.077 260.337 164.116 261.584 159.974L261.593 160.05C262.023 163.65 264.748 166.604 268.354 167.612C282.819 171.657 294.52 165.722 298.545 155.019C297.072 152.131 296.43 152.445 296.562 152.359C298.401 151.163 300.929 151.945 301.72 153.945C301.953 154.535 302.165 155.039 302.348 155.418C304.445 148.178 306.939 149.223 298.92 134.597H298.92Z" fill="#2F2E41"/>
<path d="M288.941 127.104L287.463 119.813C287.339 119.2 287.221 118.535 287.507 117.975C287.875 117.255 288.821 116.957 289.644 117.072C290.467 117.187 291.082 117.912 291.901 118.052C294.747 118.537 298.509 115.824 299.529 122.689C299.954 125.551 304.686 125.853 306.266 128.31C307.847 130.766 308.041 134.312 305.884 136.319C304.162 137.922 301.395 138.107 299.158 137.288C296.921 136.469 295.126 134.815 293.558 133.071C291.989 131.327 290.569 129.44 288.76 127.929" fill="#2F2E41"/>
<path d="M300.047 138.194C294.275 137.416 290.34 135.39 288.353 132.172C285.752 127.96 287.494 123.323 287.569 123.128L288.79 123.565C288.773 123.608 287.193 127.853 289.478 131.54C291.256 134.407 294.872 136.228 300.227 136.95L300.047 138.194V138.194Z" fill="#6C63FF"/>
<path d="M327.134 59.4116C310.165 59.4116 296.357 46.0846 296.357 29.7058C296.357 13.327 310.165 0 327.134 0C344.103 0 357.91 13.327 357.91 29.7058C357.91 46.0846 344.103 59.4116 327.134 59.4116ZM327.134 11.8823C316.951 11.8823 308.668 19.8773 308.668 29.7058C308.668 39.5342 316.951 47.5292 327.134 47.5292C337.316 47.5292 345.599 39.5342 345.599 29.7058C345.599 19.8773 337.316 11.8823 327.134 11.8823V11.8823Z" fill="black"/>
<path d="M374.486 79.5993C372.977 79.5993 371.465 79.0684 370.278 77.9921L341.392 51.8632C338.91 49.6208 338.783 45.8612 341.11 43.4679C343.43 41.0659 347.325 40.9469 349.808 43.1952L378.693 69.3241C381.176 71.5665 381.302 75.3262 378.976 77.7194C377.765 78.9698 376.127 79.5993 374.486 79.5993V79.5993Z" fill="black"/>
<path d="M505.035 487.052C507.128 487.179 508.285 484.669 506.701 483.207L506.544 482.602C506.564 482.554 506.585 482.505 506.606 482.457C508.723 477.586 515.895 477.62 517.994 482.498C519.856 486.828 522.228 491.165 522.811 495.743C523.073 497.763 522.955 499.822 522.491 501.805C526.855 492.604 529.152 482.556 529.152 472.452C529.152 469.913 529.008 467.374 528.713 464.842C528.471 462.77 528.137 460.712 527.706 458.672C525.37 447.645 520.312 437.143 513.017 428.371C509.51 426.521 506.585 423.628 504.819 420.161C504.184 418.911 503.687 417.566 503.451 416.195C503.85 416.246 504.956 410.379 504.655 410.019C505.211 409.204 506.207 408.799 506.814 408.004C509.835 404.051 513.998 404.741 516.171 410.114C520.812 412.375 520.857 416.125 518.009 419.732C516.197 422.026 515.948 425.131 514.358 427.588C514.522 427.79 514.692 427.986 514.855 428.188C517.855 431.901 520.449 435.893 522.636 440.086C522.018 435.426 522.931 429.811 524.487 426.192C526.257 422.069 529.577 418.596 532.5 415.031C536.011 410.749 543.211 412.618 543.829 418.046C543.835 418.098 543.841 418.151 543.847 418.204C543.413 418.44 542.987 418.691 542.572 418.956C540.202 420.469 541.021 424.015 543.829 424.434L543.893 424.443C543.736 425.952 543.467 427.449 543.075 428.921C546.825 442.918 538.729 448.016 527.169 448.245C526.914 448.372 526.665 448.498 526.41 448.618C527.581 451.801 528.517 455.066 529.21 458.375C529.832 461.299 530.264 464.255 530.506 467.223C530.807 470.968 530.781 474.732 530.454 478.47L530.473 478.338C531.304 474.22 533.62 470.374 536.983 467.709C541.993 463.737 549.071 462.274 554.476 459.081C557.078 457.544 560.412 459.53 559.958 462.442L559.936 462.581C559.131 462.897 558.346 463.263 557.587 463.674C557.153 463.91 556.727 464.161 556.312 464.426C553.942 465.939 554.761 469.485 557.569 469.904L557.633 469.913C557.678 469.919 557.718 469.926 557.763 469.932C556.383 473.096 554.459 476.033 552.052 478.565C549.707 490.784 539.636 491.944 528.864 488.385H528.857C527.679 493.336 525.959 498.174 523.747 502.784H505.493C505.427 502.588 505.368 502.386 505.309 502.19C506.997 502.292 508.699 502.197 510.36 501.9C509.006 500.296 507.652 498.679 506.297 497.075C506.265 497.044 506.238 497.012 506.212 496.98C505.525 496.159 504.832 495.345 504.145 494.524L504.144 494.523C504.101 492.003 504.414 489.491 505.035 487.053L505.035 487.052V487.052Z" fill="#F2F2F2"/>
<path d="M0 502.836C0 503.482 0.536924 504 1.20554 504H558.653C559.321 504 559.858 503.482 559.858 502.836C559.858 502.191 559.321 501.673 558.653 501.673H1.20554C0.536924 501.673 0 502.191 0 502.836Z" fill="#CCCCCC"/>
</g>
<defs>
<clipPath id="clip0_899_320">
<rect width="560" height="504" fill="white"/>
</clipPath>
</defs>
</svg>
